<?xml version="1.0" standalone="no"?>
<!DOCTYPE svg PUBLIC "-//W3C//DTD SVG 20010904//EN"
 "http://www.w3.org/TR/2001/REC-SVG-20010904/DTD/svg10.dtd">
<svg version="1.0" xmlns="http://www.w3.org/2000/svg"
 width="512.000000pt" height="512.000000pt" viewBox="0 0 512.000000 512.000000"
 preserveAspectRatio="xMidYMid meet">

<g transform="translate(0.000000,512.000000) scale(0.100000,-0.100000)"
fill="#fff" stroke="none">
<path d="M2370 3943 c-16 -16 -179 -264 -361 -553 -182 -289 -334 -528 -338
-533 -4 -4 -68 81 -142 189 -82 120 -144 201 -161 210 -37 19 -97 18 -131 -4
-17 -10 -148 -193 -325 -452 l-297 -435 -265 -5 c-245 -5 -267 -7 -292 -25
-55 -41 -73 -117 -39 -168 38 -58 52 -62 239 -67 l172 -5 -60 -89 c-66 -97
-73 -130 -44 -192 29 -62 117 -84 179 -45 20 12 163 213 414 580 211 310 387
559 391 554 14 -14 191 -275 196 -288 3 -7 -177 -300 -401 -652 -366 -580
-405 -645 -405 -682 0 -80 49 -131 124 -131 56 0 84 19 130 89 23 36 366 577
761 1201 394 624 722 1140 729 1147 8 8 164 -231 621 -954 438 -694 618 -971
640 -984 17 -11 49 -19 74 -19 36 0 49 6 76 33 38 38 50 73 41 120 -3 17 -96
173 -205 346 l-199 315 111 88 c60 49 114 87 118 86 4 -2 202 -217 440 -478
238 -261 444 -483 458 -492 14 -10 43 -18 64 -18 76 0 127 54 127 133 0 50 0
50 -179 246 l-83 91 238 0 c263 0 273 2 315 66 34 52 17 128 -39 169 -26 19
-45 20 -389 23 l-362 3 -239 262 c-132 144 -249 270 -260 281 -27 24 -101 32
-133 15 -13 -7 -91 -66 -173 -132 -124 -100 -150 -117 -161 -106 -7 8 -185
286 -395 619 -210 333 -397 620 -416 638 -29 27 -41 32 -84 32 -40 0 -55 -5
-80 -27z"/>
</g>
</svg>
